<svg width="992" height="715" viewBox="0 0 992 715" fill="none" xmlns="http://www.w3.org/2000/svg">
<g clip-path="url(#clip0_2876_5077)">
<rect width="992" height="715" fill="#4B5563"/>
<g filter="url(#filter0_dd_2876_5077)">
<rect width="992" height="36" fill="#374151"/>
<path d="M15.5 22.1667V13.8334M15.5 22.1667C15.5 22.6088 15.3244 23.0327 15.0118 23.3453C14.6993 23.6578 14.2754 23.8334 13.8333 23.8334H12.1667C11.7246 23.8334 11.3007 23.6578 10.9882 23.3453C10.6756 23.0327 10.5 22.6088 10.5 22.1667V13.8334C10.5 13.3914 10.6756 12.9675 10.9882 12.6549C11.3007 12.3423 11.7246 12.1667 12.1667 12.1667H13.8333C14.2754 12.1667 14.6993 12.3423 15.0118 12.6549C15.3244 12.9675 15.5 13.3914 15.5 13.8334M15.5 22.1667C15.5 22.6088 15.6756 23.0327 15.9882 23.3453C16.3007 23.6578 16.7246 23.8334 17.1667 23.8334H18.8333C19.2754 23.8334 19.6993 23.6578 20.0118 23.3453C20.3244 23.0327 20.5 22.6088 20.5 22.1667M15.5 13.8334C15.5 13.3914 15.6756 12.9675 15.9882 12.6549C16.3007 12.3423 16.7246 12.1667 17.1667 12.1667H18.8333C19.2754 12.1667 19.6993 12.3423 20.0118 12.6549C20.3244 12.9675 20.5 13.3914 20.5 13.8334M20.5 22.1667V13.8334M20.5 22.1667C20.5 22.6088 20.6756 23.0327 20.9882 23.3453C21.3007 23.6578 21.7246 23.8334 22.1667 23.8334H23.8333C24.2754 23.8334 24.6993 23.6578 25.0118 23.3453C25.3244 23.0327 25.5 22.6088 25.5 22.1667V13.8334C25.5 13.3914 25.3244 12.9675 25.0118 12.6549C24.6993 12.3423 24.2754 12.1667 23.8333 12.1667H22.1667C21.7246 12.1667 21.3007 12.3423 20.9882 12.6549C20.6756 12.9675 20.5 13.3914 20.5 13.8334" stroke="#9CA3AF" stroke-width="2" stroke-linecap="round" stroke-linejoin="round"/>
<path d="M235.398 9.7644H37.7452C36.2291 9.7644 35 10.9935 35 12.5096V23.4903C35 25.0064 36.2291 26.2355 37.7452 26.2355H235.398C236.914 26.2355 238.143 25.0064 238.143 23.4903V12.5096C238.143 10.9935 236.914 9.7644 235.398 9.7644Z" fill="#6B7280"/>
<path d="M937.5 20.5H940L939.297 19.7975C939.203 19.7031 939.128 19.5911 939.077 19.4678C939.026 19.3446 939 19.2124 939 19.079V17.5C939 16.8795 938.808 16.2742 938.45 15.7674C938.091 15.2607 937.585 14.8775 937 14.6705V14.5C937 14.2348 936.895 13.9804 936.707 13.7929C936.52 13.6054 936.265 13.5 936 13.5C935.735 13.5 935.48 13.6054 935.293 13.7929C935.105 13.9804 935 14.2348 935 14.5V14.6705C933.835 15.0825 933 16.194 933 17.5V19.0795C933 19.3485 932.893 19.607 932.703 19.7975L932 20.5H934.5M937.5 20.5H934.5M937.5 20.5V21C937.5 21.3978 937.342 21.7794 937.061 22.0607C936.779 22.342 936.398 22.5 936 22.5C935.602 22.5 935.221 22.342 934.939 22.0607C934.658 21.7794 934.5 21.3978 934.5 21V20.5" stroke="#9CA3AF" stroke-linecap="round" stroke-linejoin="round"/>
<path d="M953 13.8C952.682 13.8 952.377 13.9265 952.152 14.1515C951.926 14.3766 951.8 14.6818 951.8 15V16.2C951.8 16.5183 951.926 16.8235 952.152 17.0486C952.377 17.2736 952.682 17.4 953 17.4H954.2C954.518 17.4 954.824 17.2736 955.049 17.0486C955.274 16.8235 955.4 16.5183 955.4 16.2V15C955.4 14.6818 955.274 14.3766 955.049 14.1515C954.824 13.9265 954.518 13.8 954.2 13.8H953ZM953 18.6C952.682 18.6 952.377 18.7265 952.152 18.9515C951.926 19.1766 951.8 19.4818 951.8 19.8V21C951.8 21.3183 951.926 21.6235 952.152 21.8486C952.377 22.0736 952.682 22.2 953 22.2H954.2C954.518 22.2 954.824 22.0736 955.049 21.8486C955.274 21.6235 955.4 21.3183 955.4 21V19.8C955.4 19.4818 955.274 19.1766 955.049 18.9515C954.824 18.7265 954.518 18.6 954.2 18.6H953ZM956.6 15C956.6 14.6818 956.726 14.3766 956.952 14.1515C957.177 13.9265 957.482 13.8 957.8 13.8H959C959.318 13.8 959.624 13.9265 959.849 14.1515C960.074 14.3766 960.2 14.6818 960.2 15V16.2C960.2 16.5183 960.074 16.8235 959.849 17.0486C959.624 17.2736 959.318 17.4 959 17.4H957.8C957.482 17.4 957.177 17.2736 956.952 17.0486C956.726 16.8235 956.6 16.5183 956.6 16.2V15ZM956.6 19.8C956.6 19.4818 956.726 19.1766 956.952 18.9515C957.177 18.7265 957.482 18.6 957.8 18.6H959C959.318 18.6 959.624 18.7265 959.849 18.9515C960.074 19.1766 960.2 19.4818 960.2 19.8V21C960.2 21.3183 960.074 21.6235 959.849 21.8486C959.624 22.0736 959.318 22.2 959 22.2H957.8C957.482 22.2 957.177 22.0736 956.952 21.8486C956.726 21.6235 956.6 21.3183 956.6 21V19.8Z" fill="#9CA3AF"/>
<path d="M972.987 21.3857C974.211 20.6938 975.594 20.3312 977 20.3333C978.458 20.3333 979.827 20.7154 981.013 21.3857M978.75 16.8333C978.75 17.2975 978.566 17.7426 978.237 18.0708C977.909 18.399 977.464 18.5833 977 18.5833C976.536 18.5833 976.091 18.399 975.763 18.0708C975.434 17.7426 975.25 17.2975 975.25 16.8333C975.25 16.3692 975.434 15.9241 975.763 15.5959C976.091 15.2677 976.536 15.0833 977 15.0833C977.464 15.0833 977.909 15.2677 978.237 15.5959C978.566 15.9241 978.75 16.3692 978.75 16.8333ZM982.25 18C982.25 18.6894 982.114 19.3721 981.85 20.0091C981.587 20.646 981.2 21.2248 980.712 21.7123C980.225 22.1998 979.646 22.5865 979.009 22.8504C978.372 23.1142 977.689 23.25 977 23.25C976.311 23.25 975.628 23.1142 974.991 22.8504C974.354 22.5865 973.775 22.1998 973.288 21.7123C972.8 21.2248 972.413 20.646 972.15 20.0091C971.886 19.3721 971.75 18.6894 971.75 18C971.75 16.6076 972.303 15.2723 973.288 14.2877C974.272 13.3031 975.608 12.75 977 12.75C978.392 12.75 979.728 13.3031 980.712 14.2877C981.697 15.2723 982.25 16.6076 982.25 18Z" stroke="#6B7280" stroke-linecap="round" stroke-linejoin="round"/>
</g>
<rect width="992" height="678" transform="translate(0 37)" fill="#1F2A37"/>
<rect width="194" height="678" transform="translate(0 37)" fill="#374151"/>
<rect x="20" y="57" width="8" height="8" rx="4" fill="#9CA3AF"/>
<rect x="36" y="57" width="88" height="8" rx="2" fill="#9CA3AF"/>
<rect x="20" y="85" width="8" height="8" rx="4" fill="#9CA3AF"/>
<rect x="36" y="85" width="132" height="8" rx="2" fill="#9CA3AF"/>
<rect x="20" y="113" width="8" height="8" rx="4" fill="#9CA3AF"/>
<rect x="36" y="113" width="129" height="8" rx="2" fill="#9CA3AF"/>
<rect x="20" y="141" width="8" height="8" rx="4" fill="#9CA3AF"/>
<rect x="36" y="141" width="103" height="8" rx="2" fill="#9CA3AF"/>
<rect x="20" y="169" width="8" height="8" rx="4" fill="#9CA3AF"/>
<rect x="36" y="169" width="130" height="8" rx="2" fill="#9CA3AF"/>
<rect x="20" y="197" width="8" height="8" rx="4" fill="#9CA3AF"/>
<rect x="36" y="197" width="92" height="8" rx="2" fill="#9CA3AF"/>
<rect x="20" y="225" width="8" height="8" rx="4" fill="#9CA3AF"/>
<rect x="36" y="225" width="136" height="8" rx="2" fill="#9CA3AF"/>
<rect x="77.5" y="694" width="5" height="5" rx="2.5" fill="#9CA3AF"/>
<rect x="94.5" y="694" width="5" height="5" rx="2.5" fill="#9CA3AF"/>
<rect x="111.5" y="694" width="5" height="5" rx="2.5" fill="#9CA3AF"/>
<rect x="214" y="57" width="758" height="243.528" rx="4" fill="#374151"/>
<rect x="230" y="73" width="73" height="7" rx="2" fill="#9CA3AF"/>
<rect x="230" y="84" width="39" height="5" rx="2" fill="#6B7280"/>
<path d="M230.988 191.074C272.736 185.798 269.952 217.138 324.92 221.711C379.887 226.283 395.194 194.277 420.243 185.132C445.291 175.987 456.424 134.316 498.171 137.13C539.918 139.944 560.792 168.137 595.582 171.654C630.371 175.171 637.329 198.497 670.031 215.731C702.733 232.966 732.652 235.076 773.703 231.559C814.755 228.041 825.888 192.481 845.37 191.074C864.852 189.667 882.247 206.625 898.945 210.494C915.644 214.363 920.515 231.559 956 231.559" stroke="#9CA3AF" stroke-width="3" stroke-linecap="round" stroke-linejoin="round"/>
<path d="M230 240.994C261.932 238.105 288.191 220.486 326.292 217.524C346.599 215.946 362.868 219.018 381.019 223.792C399.17 228.565 395.617 230.626 436.439 234.306C470.126 237.343 478.938 204.601 511.948 205.859C544.959 207.117 560.226 167.751 595.078 171.037C629.93 174.324 636.893 165.827 669.654 181.929C702.415 198.031 732.682 160.499 773.807 157.213C814.932 153.927 825.643 188.805 845.16 187.49C864.677 186.176 882.25 211.029 898.978 214.644C915.707 218.258 920.451 205.127 956 205.127" stroke="#6B7280" stroke-width="3" stroke-linecap="round" stroke-linejoin="round"/>
<rect x="510" y="274.028" width="5" height="5" rx="2" fill="#6B7280"/>
<rect x="519" y="274.028" width="22" height="5" rx="2" fill="#6B7280"/>
<rect x="567" y="274.028" width="5" height="5" rx="2" fill="#6B7280"/>
<rect x="576" y="274.028" width="39" height="5" rx="2" fill="#6B7280"/>
<rect x="641" y="274.028" width="5" height="5" rx="2" fill="#6B7280"/>
<rect x="650" y="274.028" width="26" height="5" rx="2" fill="#6B7280"/>
<g clip-path="url(#clip1_2876_5077)">
<rect x="214" y="320.528" width="239.333" height="251" rx="4" fill="#374151"/>
<rect x="230" y="336.528" width="73" height="7" rx="2" fill="#9CA3AF"/>
<rect x="230" y="347.528" width="39" height="5" rx="2" fill="#6B7280"/>
<path d="M233 571.528C231.343 571.528 230 570.185 230 568.528V377.528C230 375.871 231.343 374.528 233 374.528H241C242.657 374.528 244 375.871 244 377.528V568.528C244 570.185 242.657 571.528 241 571.528H233Z" fill="#9CA3AF"/>
<path d="M263 571.528V446.528C263 444.871 264.343 443.528 266 443.528H273C274.657 443.528 276 444.871 276 446.528V571.528H263Z" fill="#9CA3AF"/>
<path d="M295 571.528V428.528C295 426.871 296.343 425.528 298 425.528H306C307.657 425.528 309 426.871 309 428.528V571.528H295Z" fill="#9CA3AF"/>
<path d="M328 571.528V452.528C328 450.871 329.343 449.528 331 449.528H338C339.657 449.528 341 450.871 341 452.528V571.528H328Z" fill="#9CA3AF"/>
<path d="M360 571.528V471.528C360 469.871 361.343 468.528 363 468.528H371C372.657 468.528 374 469.871 374 471.528V571.528H360Z" fill="#9CA3AF"/>
<path d="M393 571.528V432.528C393 430.871 394.343 429.528 396 429.528H403C404.657 429.528 406 430.871 406 432.528V571.528H393Z" fill="#9CA3AF"/>
<path d="M425 571.528V424.528C425 422.871 426.343 421.528 428 421.528H436C437.657 421.528 439 422.871 439 424.528V571.528H425Z" fill="#9CA3AF"/>
</g>
<g clip-path="url(#clip2_2876_5077)">
<rect x="473.333" y="320.528" width="239.333" height="251" rx="4" fill="#374151"/>
<g clip-path="url(#clip3_2876_5077)">
<rect x="489.333" y="336.528" width="73" height="7" rx="2" fill="#9CA3AF"/>
<rect x="489.333" y="347.528" width="39" height="5" rx="2" fill="#6B7280"/>
</g>
<g opacity="0.3">
<path fill-rule="evenodd" clip-rule="evenodd" d="M473.333 383.121C473.333 383.121 489.94 448.74 507.524 448.74C524.131 448.74 524.131 420.902 541.714 420.902C558.321 420.902 558.321 466.636 575.905 466.636C592.511 466.636 592.511 377.155 610.095 377.155C626.702 377.155 626.702 514.36 644.286 514.36C660.892 514.36 660.892 458.682 678.476 458.682C695.083 458.682 712.667 506.406 712.667 506.406V571.528H473.333V383.121Z" fill="#6B7280"/>
<path fill-rule="evenodd" clip-rule="evenodd" d="M473.333 383.121C473.333 383.121 489.94 448.74 507.524 448.74C524.131 448.74 524.131 420.902 541.714 420.902C558.321 420.902 558.321 466.636 575.905 466.636C592.511 466.636 592.511 377.155 610.095 377.155C626.702 377.155 626.702 514.36 644.286 514.36C660.892 514.36 660.892 458.682 678.476 458.682C695.083 458.682 712.667 506.406 712.667 506.406V571.528H473.333V383.121Z" fill="url(#paint0_linear_2876_5077)"/>
</g>
<path fill-rule="evenodd" clip-rule="evenodd" d="M610.095 374.528C618.03 374.528 621.513 390.518 627.707 439.658L628.952 449.558C634.655 494.295 638.436 511.115 644.286 511.115C650.016 511.115 653.252 505.193 658.743 487.642L659.615 484.827C666.211 463.44 670.287 455.688 678.476 455.688C679.429 455.688 680.394 455.83 681.369 456.107C688.375 458.1 695.662 466.901 702.964 480.303C705.841 485.581 708.522 491.227 710.941 496.873C711.576 498.355 712.026 499.757 712.553 501.062V502.8V504.566V509.748L710.564 505.228C709.933 503.631 709.202 501.848 708.379 499.928C706.027 494.438 703.42 488.95 700.634 483.836C693.765 471.23 686.978 463.031 680.839 461.285C680.036 461.057 679.249 460.942 678.476 460.942C672.344 460.942 668.877 466.868 663.428 483.992L661.012 491.731C655.258 509.821 651.468 516.368 644.286 516.368C635.773 516.368 632.012 499.352 625.586 448.399L624.066 436.347C618.772 395.201 615.272 379.782 610.095 379.782C603.974 379.782 600.337 390.51 594.509 420.551L593.031 428.203C587.113 458.425 583.454 468.86 575.905 468.86C568.309 468.86 564.22 463.19 558.283 447.936L555.615 440.933C550.499 427.776 547.322 423.331 541.714 423.331C535.156 423.331 531.703 426.356 526.094 435.251L524.984 437.038C518.637 447.327 514.787 451.044 507.524 451.044C499.107 451.044 490.727 438.308 482.514 417.185C479.701 409.949 477.108 402.211 474.794 394.473L473.867 391.32C473.72 390.812 473.577 390.312 473.438 389.821V385.174L473.485 377.331L474.783 382.068L475.514 384.81L476.285 387.575C476.693 389.015 477.136 390.537 477.612 392.128C479.877 399.701 482.413 407.272 485.156 414.326C492.817 434.031 500.555 445.791 507.524 445.791C513.509 445.791 516.704 442.947 522.076 434.416L523.156 432.677C529.746 421.994 533.864 418.078 541.714 418.078C548.98 418.078 552.811 423.793 558.823 439.543L559.778 442.074C565.828 458.188 569.297 463.607 575.905 463.607C581.315 463.607 584.676 453.894 590.041 426.552L591.884 417.025C598.041 385.607 601.978 374.528 610.095 374.528Z" fill="#9CA3AF"/>
</g>
<g clip-path="url(#clip4_2876_5077)">
<rect x="732.667" y="320.528" width="239.333" height="251" rx="4" fill="#374151"/>
<rect x="748.667" y="336.528" width="73" height="7" rx="2" fill="#9CA3AF"/>
<rect x="748.667" y="347.528" width="39" height="5" rx="2" fill="#6B7280"/>
<path d="M751.667 571.528C750.01 571.528 748.667 570.185 748.667 568.528V377.528C748.667 375.871 750.01 374.528 751.667 374.528H759.667C761.323 374.528 762.667 375.871 762.667 377.528V568.528C762.667 570.185 761.323 571.528 759.667 571.528H751.667Z" fill="#9CA3AF"/>
<path d="M770.667 571.528C769.01 571.528 767.667 570.185 767.667 568.528V436.528C767.667 434.871 769.01 433.528 770.667 433.528H778.667C780.323 433.528 781.667 434.871 781.667 436.528V568.528C781.667 570.185 780.323 571.528 778.667 571.528H770.667Z" fill="#6B7280"/>
<path d="M796.667 571.528C795.01 571.528 793.667 570.185 793.667 568.528V487.528C793.667 485.871 795.01 484.528 796.667 484.528H804.667C806.323 484.528 807.667 485.871 807.667 487.528V568.528C807.667 570.185 806.323 571.528 804.667 571.528H796.667Z" fill="#9CA3AF"/>
<path d="M815.667 571.528C814.01 571.528 812.667 570.185 812.667 568.528V415.528C812.667 413.871 814.01 412.528 815.667 412.528H823.667C825.323 412.528 826.667 413.871 826.667 415.528V568.528C826.667 570.185 825.323 571.528 823.667 571.528H815.667Z" fill="#6B7280"/>
<path d="M841.667 571.528C840.01 571.528 838.667 570.185 838.667 568.528V404.528C838.667 402.871 840.01 401.528 841.667 401.528H849.667C851.323 401.528 852.667 402.871 852.667 404.528V568.528C852.667 570.185 851.323 571.528 849.667 571.528H841.667Z" fill="#9CA3AF"/>
<path d="M860.667 571.528C859.01 571.528 857.667 570.185 857.667 568.528V383.528C857.667 381.871 859.01 380.528 860.667 380.528H868.667C870.323 380.528 871.667 381.871 871.667 383.528V568.528C871.667 570.185 870.323 571.528 868.667 571.528H860.667Z" fill="#6B7280"/>
<path d="M886.667 571.528C885.01 571.528 883.667 570.185 883.667 568.528V404.528C883.667 402.871 885.01 401.528 886.667 401.528H894.667C896.323 401.528 897.667 402.871 897.667 404.528V568.528C897.667 570.185 896.323 571.528 894.667 571.528H886.667Z" fill="#9CA3AF"/>
<path d="M905.667 571.528C904.01 571.528 902.667 570.185 902.667 568.528V489.528C902.667 487.871 904.01 486.528 905.667 486.528H913.667C915.323 486.528 916.667 487.871 916.667 489.528V568.528C916.667 570.185 915.323 571.528 913.667 571.528H905.667Z" fill="#6B7280"/>
<path d="M931.667 571.528C930.01 571.528 928.667 570.185 928.667 568.528V422.528C928.667 420.871 930.01 419.528 931.667 419.528H939.667C941.323 419.528 942.667 420.871 942.667 422.528V568.528C942.667 570.185 941.323 571.528 939.667 571.528H931.667Z" fill="#9CA3AF"/>
<path d="M950.667 571.528C949.01 571.528 947.667 570.185 947.667 568.528V458.528C947.667 456.871 949.01 455.528 950.667 455.528H958.667C960.323 455.528 961.667 456.871 961.667 458.528V568.528C961.667 570.185 960.323 571.528 958.667 571.528H950.667Z" fill="#6B7280"/>
</g>
<rect x="214" y="591.528" width="171.333" height="93" rx="4" fill="#374151"/>
<rect x="224" y="601.528" width="40" height="4" rx="1" fill="#9CA3AF"/>
<rect x="224" y="622.528" width="152" height="4" rx="1" fill="#6B7280"/>
<rect x="224" y="631.528" width="81" height="4" rx="1" fill="#6B7280"/>
<rect x="224" y="652.528" width="43" height="14" rx="2" fill="#1A56DB"/>
<rect x="231" y="658.028" width="29" height="3" rx="1" fill="white"/>
<rect x="274" y="652.528" width="43" height="14" rx="2" fill="#4B5563"/>
<rect x="281" y="658.028" width="29" height="3" rx="1" fill="#9CA3AF"/>
<rect x="405.333" y="591.528" width="184" height="93" rx="4" fill="#374151"/>
<rect x="415.333" y="601.528" width="40" height="4" rx="2" fill="#9CA3AF"/>
<rect x="565.333" y="602.528" width="14" height="2" rx="1" fill="#6B7280"/>
<rect x="415.333" y="622.528" width="30.5" height="4" rx="1" fill="#6B7280"/>
<rect x="459.833" y="622.528" width="30.5" height="4" rx="1" fill="#6B7280"/>
<rect x="504.333" y="622.528" width="30.5" height="4" rx="1" fill="#6B7280"/>
<rect x="548.833" y="622.528" width="30.5" height="4" rx="1" fill="#6B7280"/>
<rect x="415.333" y="634.528" width="30.5" height="4" rx="1" fill="#6B7280"/>
<rect x="459.833" y="634.528" width="30.5" height="4" rx="1" fill="#6B7280"/>
<rect x="504.333" y="634.528" width="30.5" height="4" rx="1" fill="#6B7280"/>
<rect x="548.833" y="634.528" width="30.5" height="4" rx="1" fill="#6B7280"/>
<rect x="415.333" y="646.528" width="30.5" height="4" rx="1" fill="#6B7280"/>
<rect x="459.833" y="646.528" width="30.5" height="4" rx="1" fill="#6B7280"/>
<rect x="504.333" y="646.528" width="30.5" height="4" rx="1" fill="#6B7280"/>
<rect x="548.833" y="646.528" width="30.5" height="4" rx="1" fill="#6B7280"/>
<rect x="415.333" y="658.528" width="30.5" height="4" rx="1" fill="#6B7280"/>
<rect x="459.833" y="658.528" width="30.5" height="4" rx="1" fill="#6B7280"/>
<rect x="504.333" y="658.528" width="30.5" height="4" rx="1" fill="#6B7280"/>
<rect x="548.833" y="658.528" width="30.5" height="4" rx="1" fill="#6B7280"/>
<rect x="415.333" y="670.528" width="30.5" height="4" rx="1" fill="#6B7280"/>
<rect x="459.833" y="670.528" width="30.5" height="4" rx="1" fill="#6B7280"/>
<rect x="504.333" y="670.528" width="30.5" height="4" rx="1" fill="#6B7280"/>
<rect x="548.833" y="670.528" width="30.5" height="4" rx="1" fill="#6B7280"/>
<rect x="609.333" y="591.528" width="171.333" height="92.6746" rx="4" fill="#374151"/>
<rect x="619.333" y="601.528" width="40" height="4" rx="2" fill="#9CA3AF"/>
<rect x="766.667" y="601.528" width="4" height="4" rx="2" fill="#9CA3AF"/>
<rect x="619.333" y="619.528" width="113" height="5" rx="2.5" fill="#6B7280"/>
<rect x="619.333" y="629.528" width="92" height="5" rx="2.5" fill="#6B7280"/>
<rect x="619.333" y="639.528" width="109" height="5" rx="2.5" fill="#6B7280"/>
<rect x="619.333" y="649.528" width="64" height="5" rx="2.5" fill="#6B7280"/>
<rect x="619.333" y="669.366" width="4" height="4" rx="2" fill="#9CA3AF"/>
<rect x="623.333" y="669.366" width="4" height="4" rx="2" fill="#9CA3AF"/>
<rect x="627.333" y="669.366" width="4" height="4" rx="2" fill="#9CA3AF"/>
<rect x="741.149" y="668.528" width="29.5174" height="5.67462" rx="2" fill="#6B7280"/>
<rect x="800.667" y="591.528" width="171.333" height="92.6746" rx="4" fill="#374151"/>
<rect x="810.667" y="601.528" width="40" height="4" rx="2" fill="#9CA3AF"/>
<rect x="958" y="601.528" width="4" height="4" rx="2" fill="#9CA3AF"/>
<rect x="810.667" y="619.528" width="113" height="5" rx="2.5" fill="#6B7280"/>
<rect x="810.667" y="629.528" width="92" height="5" rx="2.5" fill="#6B7280"/>
<rect x="810.667" y="639.528" width="109" height="5" rx="2.5" fill="#6B7280"/>
<rect x="810.667" y="649.528" width="64" height="5" rx="2.5" fill="#6B7280"/>
<rect x="810.667" y="669.366" width="4" height="4" rx="2" fill="#9CA3AF"/>
<rect x="814.667" y="669.366" width="4" height="4" rx="2" fill="#9CA3AF"/>
<rect x="818.667" y="669.366" width="4" height="4" rx="2" fill="#9CA3AF"/>
<rect x="932.482" y="668.528" width="29.5174" height="5.67462" rx="2" fill="#6B7280"/>
</g>
<defs>
<filter id="filter0_dd_2876_5077" x="-3" y="-2" width="998" height="42" filterUnits="userSpaceOnUse" color-interpolation-filters="sRGB">
<feFlood flood-opacity="0" result="BackgroundImageFix"/>
<feColorMatrix in="SourceAlpha" type="matrix" values="0 0 0 0 0 0 0 0 0 0 0 0 0 0 0 0 0 0 127 0" result="hardAlpha"/>
<feOffset dy="1"/>
<feGaussianBlur stdDeviation="1.5"/>
<feColorMatrix type="matrix" values="0 0 0 0 0 0 0 0 0 0 0 0 0 0 0 0 0 0 0.1 0"/>
<feBlend mode="normal" in2="BackgroundImageFix" result="effect1_dropShadow_2876_5077"/>
<feColorMatrix in="SourceAlpha" type="matrix" values="0 0 0 0 0 0 0 0 0 0 0 0 0 0 0 0 0 0 127 0" result="hardAlpha"/>
<feOffset dy="1"/>
<feGaussianBlur stdDeviation="1"/>
<feColorMatrix type="matrix" values="0 0 0 0 0 0 0 0 0 0 0 0 0 0 0 0 0 0 0.06 0"/>
<feBlend mode="normal" in2="effect1_dropShadow_2876_5077" result="effect2_dropShadow_2876_5077"/>
<feBlend mode="normal" in="SourceGraphic" in2="effect2_dropShadow_2876_5077" result="shape"/>
</filter>
<linearGradient id="paint0_linear_2876_5077" x1="593" y1="377.155" x2="593" y2="571.528" gradientUnits="userSpaceOnUse">
<stop stop-color="white" stop-opacity="0"/>
<stop offset="1" stop-color="#374151"/>
</linearGradient>
<clipPath id="clip0_2876_5077">
<rect width="992" height="715" fill="white"/>
</clipPath>
<clipPath id="clip1_2876_5077">
<rect x="214" y="320.528" width="239.333" height="251" rx="4" fill="white"/>
</clipPath>
<clipPath id="clip2_2876_5077">
<rect x="473.333" y="320.528" width="239.333" height="251" rx="4" fill="white"/>
</clipPath>
<clipPath id="clip3_2876_5077">
<rect width="239.333" height="16" fill="white" transform="translate(473.333 336.528)"/>
</clipPath>
<clipPath id="clip4_2876_5077">
<rect x="732.667" y="320.528" width="239.333" height="251" rx="4" fill="white"/>
</clipPath>
</defs>
</svg>
